<svg xmlns="http://www.w3.org/2000/svg" viewBox="0 0 263 39.11" class="av-logo" style="fill: white;"><path class="av-logo-class" d="M48.21,27l7.61-16.83c.08-.16.24-.32.4-.24h.24a.44.44,0,0,1,.4.24L64.4,27a.45.45,0,0,1-.16.56.31.31,0,0,1-.24.08H63a.42.42,0,0,1-.4-.24l-1.85-4.16h-8.9L50.05,27.3a.45.45,0,0,1-.4.24h-1a.45.45,0,0,1-.48-.4C48.13,27.14,48.13,27.06,48.21,27Zm11.86-5.29c-1.2-2.72-2.4-5.45-3.68-8.17h-.24l-3.69,8.17Z"></path><path class="av-logo-class" d="M69.18,10.23a.44.44,0,0,1,.48-.32h.4a.44.44,0,0,1,.4.24l5,13.78h.16l4.89-13.78a.45.45,0,0,1,.4-.24h.4a.54.54,0,0,1,.48.32L85,27.06c.08.32-.08.56-.48.56h-1A.55.55,0,0,1,83,27.3L80.8,14.4h-.08L76.15,27.62a.44.44,0,0,1-.4.24h-.48a.45.45,0,0,1-.4-.24L70.22,14.4h-.08L68,27.3a.44.44,0,0,1-.48.32h-1c-.4,0-.57-.24-.49-.56Z"></path><path class="av-logo-class" d="M88.72,10.64a.52.52,0,0,1,.48-.48h9.86a.52.52,0,0,1,.48.48v.73a.52.52,0,0,1-.48.48H90.65v6.09h7.21a.52.52,0,0,1,.48.48v.72a.52.52,0,0,1-.48.48H90.65V26h8.41a.52.52,0,0,1,.48.48h0v.73a.52.52,0,0,1-.48.48H89.2a.52.52,0,0,1-.48-.48h0Z"></path><path class="av-logo-class" d="M103.53,10.64a.52.52,0,0,1,.48-.48h6.49A5.37,5.37,0,0,1,116,15.45h0a5.64,5.64,0,0,1-3.69,5.13l3.45,6.33a.44.44,0,0,1-.1.61l-.06,0a.27.27,0,0,1-.24.08H114a.42.42,0,0,1-.4-.24l-3.29-6.65h-4.81v6.41a.53.53,0,0,1-.48.49h-1a.53.53,0,0,1-.48-.49h0Zm6.81,8.5a3.61,3.61,0,1,0,.12-7.21h-5v7.21Z"></path><path class="av-logo-class" d="M120.06,10.64a.52.52,0,0,1,.48-.48h1a.52.52,0,0,1,.48.48v16.6a.52.52,0,0,1-.48.48h-1a.52.52,0,0,1-.48-.48Z"></path><path class="av-logo-class" d="M134.89,9.91A9.06,9.06,0,0,1,141,12.23a.52.52,0,0,1,0,.72h0l-.64.65c-.24.24-.4.24-.64,0a7.6,7.6,0,0,0-4.81-1.85,7.13,7.13,0,0,0-7,7.26s0,.08,0,.12a7.19,7.19,0,0,0,7,7,7.65,7.65,0,0,0,4.81-1.84.47.47,0,0,1,.56-.08l.72.64a.49.49,0,0,1,0,.64h0a8.29,8.29,0,0,1-6.09,2.4,9,9,0,1,1,0-18h0Z"></path><path class="av-logo-class" d="M142.42,27,150,10.15a.45.45,0,0,1,.4-.24h.24a.44.44,0,0,1,.4.24L158.61,27a.47.47,0,0,1-.16.56.32.32,0,0,1-.24.08h-1a.46.46,0,0,1-.4-.24L155,23.21h-8.9l-1.84,4.17a.45.45,0,0,1-.4.24h-1a.44.44,0,0,1-.48-.4.15.15,0,0,1,0-.21Zm11.86-5.29c-1.2-2.72-2.4-5.45-3.68-8.17h-.16l-3.69,8.17Z"></path><path class="av-logo-class" d="M164.58,10.8a.46.46,0,0,1,.16-.56.3.3,0,0,1,.24-.08h1a.45.45,0,0,1,.4.24l6.25,14h.08l6.25-14a.45.45,0,0,1,.4-.24h1a.46.46,0,0,1,.48.4.3.3,0,0,1-.08.24l-7.62,16.83a.42.42,0,0,1-.4.24h-.24a.43.43,0,0,1-.4-.24Z"></path><path class="av-logo-class" d="M183.53,10.64a.53.53,0,0,1,.49-.48h1a.52.52,0,0,1,.48.48v16.6a.52.52,0,0,1-.48.48h-1a.53.53,0,0,1-.49-.48Z"></path><path class="av-logo-class" d="M190.59,10.64a.52.52,0,0,1,.48-.48h6.49A5.37,5.37,0,0,1,203,15.45h0a5.64,5.64,0,0,1-3.69,5.13l3.45,6.33a.44.44,0,0,1-.1.61l-.06,0a.27.27,0,0,1-.24.08h-1.28a.42.42,0,0,1-.4-.24l-3.29-6.65h-4.81v6.41a.53.53,0,0,1-.48.49h-1a.53.53,0,0,1-.48-.49h0Zm6.81,8.5a3.61,3.61,0,0,0,0-7.21h-4.89v7.21Z"></path><path class="av-logo-class" d="M209.65,11.85h-4.33a.53.53,0,0,1-.48-.48v-.73a.53.53,0,0,1,.48-.48H215.9a.52.52,0,0,1,.48.48v.73a.52.52,0,0,1-.48.48h-4.32V27.24a.53.53,0,0,1-.49.48h-1a.52.52,0,0,1-.48-.48Z"></path><path class="av-logo-class" d="M218.84,10.64a.53.53,0,0,1,.48-.48h1a.52.52,0,0,1,.48.48h0V21.06c0,2.89,1.76,5.05,4.73,5.05s4.73-2.16,4.73-5.05V10.56a.52.52,0,0,1,.48-.48h1a.52.52,0,0,1,.48.48V21.14a6.61,6.61,0,1,1-13.22.24h0v-.24Z"></path><path class="av-logo-class" d="M234.43,27,242,10.15c.08-.16.24-.32.4-.24h.24a.44.44,0,0,1,.4.24L250.62,27a.45.45,0,0,1-.16.56.31.31,0,0,1-.24.08h-1a.42.42,0,0,1-.4-.24l-1.85-4.16H238l-1.84,4.16a.43.43,0,0,1-.4.24h-1a.45.45,0,0,1-.48-.4A.31.31,0,0,1,234.43,27Zm11.86-5.29c-1.2-2.72-2.4-5.45-3.68-8.17h-.24l-3.69,8.17Z"></path><path class="av-logo-class" d="M253.38,10.64a.53.53,0,0,1,.48-.48h1a.53.53,0,0,1,.48.48V26h7.21a.52.52,0,0,1,.48.48h0v.73a.52.52,0,0,1-.48.48h-8.66a.53.53,0,0,1-.48-.48h0Z"></path><path class="av-logo-class" d="M10.41,12.34a1.17,1.17,0,0,0-.8-.32,1.24,1.24,0,0,0-1.2,1.2V25.81a1.49,1.49,0,0,0,.33.8,1.17,1.17,0,0,0,1.64,0s0,0,0,0l5.69-5.45,5.77,5.61a1,1,0,0,0,.8.32h0a1.33,1.33,0,0,0,.88-.4,1.16,1.16,0,0,0,0-1.64l0-.05ZM10.81,23V16l3.61,3.53Z"></path><path class="av-logo-class" d="M19.08,0A19.33,19.33,0,0,0,0,19.56C0,30.3,8.58,39.11,19.08,39.11A19.33,19.33,0,0,0,38.15,19.56,19.33,19.33,0,0,0,19.08,0Zm0,36.63A16.9,16.9,0,0,1,2.4,19.56,16.91,16.91,0,0,1,19.08,2.4h0A16.93,16.93,0,0,1,35.75,19.55,16.86,16.86,0,0,1,19.13,36.63Z"></path><path class="av-logo-class" d="M29.34,11.62a1.16,1.16,0,0,0-1.2,1.12V23.16l-11.3-10.9A1.2,1.2,0,0,0,15.15,14h0l13,12.58a1,1,0,0,0,.8.32h0a1.1,1.1,0,0,0,.72-.24,1.19,1.19,0,0,0,.8-1.12V12.82A1.17,1.17,0,0,0,29.34,11.62Z"></path></svg>